PathFileType	4	(X/Y/Z)	10_2_102_p1_0-605_filt_butterworth.trc
DataRate	CameraRate	NumFrames	NumMarkers	Units	OrigDataRate	OrigDataStartFrame	OrigNumFrames
56.0	56.0	5	27	m	56.0	529	605
Frame#	Time	RHip			RKnee			RAnkle			RBigToe			RSmallToe			RHeel			LHip			LKnee			LAnkle			LBigToe			LSmallToe			LHeel			Neck			Head			Nose			RShoulder			RElbow			RWrist			RThumb			RIndex			RPinky			LShoulder			LElbow			LWrist			LThumb			LIndex			LPinky			
		X1	Y1	Z1	X2	Y2	Z2	X3	Y3	Z3	X4	Y4	Z4	X5	Y5	Z5	X6	Y6	Z6	X7	Y7	Z7	X8	Y8	Z8	X9	Y9	Z9	X10	Y10	Z10	X11	Y11	Z11	X12	Y12	Z12	X13	Y13	Z13	X14	Y14	Z14	X15	Y15	Z15	X16	Y16	Z16	X17	Y17	Z17	X18	Y18	Z18	X19	Y19	Z19	X20	Y20	Z20	X21	Y21	Z21	X22	Y22	Z22	X23	Y23	Z23	X24	Y24	Z24	X25	Y25	Z25	X26	Y26	Z26	X27	Y27	Z27	
529	9.446428571428571	0.30977753332836067	0.7478666109518972	0.7317833991186092	0.3120311446005289	0.33019689494451665	0.7576916470852589	0.3068946202999316	-0.09129062044467519	0.8015728856157116	0.2782203811165529	-0.12363517361483958	0.5996724684303446	0.35277831556294764	-0.13561240325993187	0.6585756382877512	0.2752536813120467	-0.17853200281627574	0.8716815873072591	0.08256823497196308	0.7453998287673492	0.718892943872411	0.07777629217387515	0.3408639678815891	0.7349135726179772	0.0789060724837492	-0.05881106513513164	0.7375791085590375	0.12986402083995383	-0.12890383103930972	0.5897525622249234	0.0560752875505605	-0.1006669242976658	0.6005066723553484	0.0982743106371236	-0.14105228019214203	0.8219141089559049	0.19881322761335485	1.3243501352108429	0.7146898215690599	0.21901121997092768	1.566769146797316	0.6718090998463782	0.21539335277094412	1.455958239644404	0.6281416948968852	0.36181635871836065	1.201647391112732	0.7259977034425217	0.39116512221850297	0.9140945597589859	0.7120028098956752	0.35907112137814345	0.683807518158221	0.6394354989037035	0.3397156782426298	0.5880826501635337	0.6076803592795419	0.348872709482667	0.5626351215505333	0.6358176828048818	0.3524206993067499	0.5486325171668927	0.6959034822003676	0.049818435523475715	1.2107737400632261	0.7093937379554198	0.03163786550441777	0.9376394382447587	0.6388007379961139	0.11590743373808107	0.7550422434948993	0.5329181727028363	0.2094352671565339	0.6885471358508062	0.5031958689428071	0.19725563839828558	0.6534272201280111	0.4892483496633827	0.1450000953548061	0.6302036071011934	0.4943760909972115	
530	9.464285714285714	0.3093036255017605	0.7475157769006089	0.731724372089408	0.3119747900124757	0.3303131931893085	0.7579501063978118	0.30737305546542454	-0.0909144115379396	0.8015109686860219	0.27826646201833255	-0.12451191782109945	0.5998758412875541	0.35327846532931384	-0.1369461245332871	0.66038911707214	0.2749764087041834	-0.17771850010193027	0.8701740352710627	0.08158339092593636	0.7445724497310511	0.7185873364269486	0.07777745681071022	0.34062687849678086	0.7345865842057571	0.07893627744819098	-0.05815160154659678	0.7374179977432264	0.1287550868415629	-0.12844725200505436	0.5910559812157338	0.05649486631365873	-0.10110285892192787	0.6009993421918812	0.09852953550848359	-0.140499227763222	0.8217779046458233	0.1987719567809482	1.3245554667379842	0.7142969402202932	0.21902919580408486	1.5668273021492858	0.6707471089723452	0.21548600660868988	1.4559763833911927	0.6285813328542998	0.36188474076520205	1.2023824056664598	0.7247192840956994	0.389614342244161	0.9132992558119298	0.7069982277572814	0.35680427465063014	0.6840568752798698	0.6359347600384959	0.33370219780452737	0.588987072810827	0.6047590271620795	0.34154909667468214	0.5591348357629631	0.6408170812423217	0.3416574744936603	0.543829891116002	0.7075583410195767	0.04982313139221436	1.210665820411469	0.7093966771586716	0.0340808331215814	0.937471158858083	0.6396077757149126	0.12100001084108997	0.75639550670162	0.5327000506926177	0.21583477579106142	0.6923870109865564	0.49853082352707373	0.2008753465883758	0.6537703498701692	0.4922228473250752	0.15491132601539911	0.6330854539641049	0.49262403548215644	
531	9.482142857142858	0.3088660865023073	0.7473517706295253	0.7313180242858935	0.3119661800140772	0.33017196863873427	0.7584023746921693	0.3078361980127647	-0.09052055139616072	0.8014265252566963	0.27827926319422536	-0.12524415599356392	0.5999180864530309	0.3531946794472972	-0.1376851189844896	0.6614865028652649	0.2746763433362914	-0.17682954327438805	0.8684321861978929	0.08061593123109242	0.7436867324562902	0.7183091039484871	0.07778478348445278	0.3405291403738912	0.7343305221519689	0.0789886396941603	-0.05745204496723934	0.7372720694560101	0.127822287629413	-0.1286646723419603	0.5918395325155317	0.05686676045081847	-0.10203692855981594	0.6021080620563235	0.09878424004430557	-0.13971768751974192	0.821666484131402	0.19889603000257577	1.3245721913788329	0.7140088069343904	0.2191505224291177	1.5670046313839596	0.6711116981589824	0.21556423062782404	1.4560207182551694	0.6288279715602427	0.36281935860089265	1.2025777298198748	0.7242303811782163	0.38810967385729833	0.9122796992582372	0.7035339419734574	0.3538152399860581	0.685545678381232	0.6299589903132496	0.32544598911822564	0.5887859476017645	0.6032798386791511	0.3315312057440015	0.5566462096382481	0.64527680196652	0.3283741182523512	0.5416533469732577	0.7133395425467148	0.049814432934530625	1.2105438793775383	0.7094160516003412	0.036340531717326645	0.9373528719841159	0.6402735744597339	0.126941229534608	0.7585097881367797	0.5316133412394171	0.22303072886481307	0.6962594647506324	0.492873810104842	0.20538414950892858	0.6558193520783967	0.49106815471597876	0.16428836846794342	0.636079405265686	0.49173564233446687	
532	9.5	0.30847652192573893	0.7472421834504083	0.7306173198071557	0.3119980827781118	0.32983824297605147	0.7589918952239779	0.308279570388167	-0.09011152092252309	0.8013179693657627	0.2782737228483052	-0.12565410115851447	0.5998207373362753	0.35237065841308873	-0.1379947650699217	0.6619762258461659	0.27440998596942096	-0.1760059042070393	0.8666885446673805	0.07974246119672804	0.7427876290873409	0.7181950946125902	0.07779965906370485	0.340541577985804	0.7341675815784454	0.07905256570310698	-0.05674606396329261	0.7371450398362763	0.1270552388925672	-0.12972154421014365	0.5926174661329721	0.05695978766702045	-0.10349518724621382	0.6039496647524709	0.09905960596857866	-0.13881173721926615	0.8216207318645692	0.1990188463698298	1.3242948855391703	0.7137880712094213	0.21913105678667488	1.5671436265476308	0.6728535357276195	0.21557065589125884	1.4560651651673027	0.6288864644123837	0.36460594015973224	1.2022232955734868	0.7241295591483468	0.3866968842590977	0.9113191781024353	0.7014816701533897	0.3495908391329674	0.6885099109074972	0.6209212398781786	0.3144322622120886	0.5882977462618955	0.6020006314746353	0.31843222434723584	0.5562024849511409	0.6466966869442703	0.3126055907693096	0.5427733504877561	0.7111305968737105	0.04979960224003174	1.2104610520488772	0.709451000123891	0.03816838976084922	0.9372453774002363	0.6409085484734973	0.13335049012060474	0.7610762119645853	0.5299587854220441	0.23014440000365483	0.6999187138016737	0.48684952286643424	0.21124180426879702	0.659532453054461	0.4861848260720808	0.172811772077068	0.63868156319256	0.4924155340079136	
533	9.517857142857142	0.3081466310569505	0.7470748994098276	0.729664320344696	0.31207509345951845	0.32931340574363954	0.7596716103017866	0.3086921356279687	-0.08970487700473286	0.801184291543259	0.2782717770939448	-0.12587281216409207	0.5996163771792044	0.35096368028801034	-0.1381654439045711	0.6621123817889717	0.27419503421955144	-0.17532661556195187	0.8651712372969232	0.07905164552718895	0.741844717665857	0.7184217174442158	0.07781040232638434	0.34063138362107404	0.7340594134377934	0.07910760257822567	-0.056050788769544876	0.7370364565029521	0.12634407856511964	-0.1314145448809207	0.5938775744623883	0.05674066703355296	-0.10547727720694837	0.6067382259048455	0.09936037194864485	-0.137888188092699	0.821655513502281	0.1990786744993463	1.3237430291907704	0.7136121591617313	0.21871413065727646	1.5671568365332136	0.6753340599731708	0.21554350884219464	1.4560929785929202	0.6288548289751135	0.36697405772998726	1.201724291714468	0.7239492888431872	0.3854097751649937	0.9106659188386277	0.7002171104305343	0.34383298949915075	0.6927167895813988	0.6090314860906525	0.30065532001295014	0.5892977177334775	0.5991180906920216	0.3021806318795604	0.5591107916631849	0.6427130094087722	0.29501174895532933	0.5477015294104659	0.7004580050705479	0.049782290054500175	1.2103955179020627	0.7094975958801855	0.03934372089773169	0.9371434948983484	0.641615445104545	0.13950303037452078	0.7636040099523667	0.5282642947673665	0.23637238270963046	0.7033939003739192	0.48107523291771204	0.21803185359327854	0.6644350978389992	0.47929215488876975	0.1804977544177478	0.6403567910719012	0.4952306138422138	
